<svg height="512" viewBox="0 0 64 64" width="512" xmlns="http://www.w3.org/2000/svg"><g id="Bank"><circle cx="32" cy="38" fill="#4294ff" r="11"/><path d="m33.9492 37.5952-.9492-.3162v-3.279a1.0009 1.0009 0 0 1 1 1 1 1 0 0 0 2 0 3.0033 3.0033 0 0 0 -3-3v-1a1 1 0 0 0 -2 0v1a3.0033 3.0033 0 0 0 -3 3v.5586a2.9973 2.9973 0 0 0 2.0508 2.8462l.9492.3162v3.279a1.0009 1.0009 0 0 1 -1-1 1 1 0 0 0 -2 0 3.0033 3.0033 0 0 0 3 3v1a1 1 0 0 0 2 0v-1a3.0033 3.0033 0 0 0 3-3v-.5586a2.9973 2.9973 0 0 0 -2.0508-2.8462zm-3.2656-1.0879a.9982.9982 0 0 1 -.6836-.9487v-.5586a1.0009 1.0009 0 0 1 1-1v2.6127zm3.3164 4.4927a1.0009 1.0009 0 0 1 -1 1v-2.6127l.3164.1054a.9982.9982 0 0 1 .6836.9487z" fill="#376cfb"/><rect fill="#376cfb" height="22" rx="1" width="8" x="47" y="27"/><rect fill="#2946ed" height="7" rx="1" width="12" x="45" y="22"/><rect fill="#376cfb" height="22" rx="1" width="8" x="9" y="27"/><g fill="#2946ed"><rect height="7" rx="1" width="12" x="7" y="22"/><rect height="7" rx="1" width="12" x="45" y="47"/><rect height="7" rx="1" width="12" x="7" y="47"/></g><rect fill="#376cfb" height="7" rx="1" width="56" x="4" y="17"/><path d="m63.4805 17.123-31-17a1 1 0 0 0 -.961 0l-31 17a1 1 0 0 0 .4805 1.877h62a1 1 0 0 0 .48-1.877z" fill="#4294ff"/><rect fill="#376cfb" height="7" rx="1" width="56" x="4" y="52"/><rect fill="#4294ff" height="7" rx="1" width="64" y="57"/></g></svg>